<svg xmlns="http://www.w3.org/2000/svg" width="72" height="72" fill="none"><g clip-path="url(#a)"><g clip-path="url(#b)"><path fill="#ffcfcd" d="M72 0H0v72h72z"/><path fill="#26253e" fill-rule="evenodd" d="m36 13.019 3.89 3.89L36 20.796l-3.89-3.889ZM13.019 36l16.617-16.617 3.89 3.89L20.796 36 39.89 55.092 36 58.98Zm29.345-16.617L25.747 36l16.617 16.617 3.889-3.89L33.525 36l12.728-12.728ZM58.981 36l-3.89-3.89L51.204 36l3.889 3.89zm-20.506 0 10.253-10.253 3.889 3.889L46.253 36l6.364 6.364-3.89 3.889z" clip-rule="evenodd"/></g></g><defs><clipPath id="a"><path fill="#fff" d="M0 0h244v72H0z"/></clipPath><clipPath id="b"><path fill="#fff" d="M0 0h72v72H0z"/></clipPath><clipPath id="c"><path fill="#fff" d="M92 8h152v56H92z"/></clipPath></defs></svg>
